<?xml version="1.0" encoding="UTF-8"?>
<svg width="20px" height="20px" viewBox="0 0 20 20" version="1.1" xmlns="http://www.w3.org/2000/svg" xmlns:xlink="http://www.w3.org/1999/xlink">
    <title>52F3F87C-0298-4FE3-8B6E-8C9BE39B8FFF</title>
    <g id="Page-1" stroke="none" stroke-width="1" fill="none" fill-rule="evenodd">
        <g id="Create-Work-Order-Step-4-Compliance" transform="translate(-1011.000000, -457.000000)" fill="#2E2E38">
            <g id="Table" transform="translate(30.000000, 230.000000)">
                <g id="Group" transform="translate(30.000000, 64.000000)">
                    <g transform="translate(317.000000, 36.000000)" id="plus_circle-[#1425]">
                        <path d="M645,136 L648,136 L648,138 L645,138 L645,141 L643,141 L643,138 L640,138 L640,136 L643,136 L643,133 L645,133 L645,136 Z M636,137 C636,132.589 639.589,129 644,129 C648.411,129 652,132.589 652,137 C652,141.411 648.411,145 644,145 C639.589,145 636,141.411 636,137 Z M634,137 C634,142.523 638.477,147 644,147 C649.523,147 654,142.523 654,137 C654,131.477 649.523,127 644,127 C638.477,127 634,131.477 634,137 Z"></path>
                    </g>
                </g>
            </g>
        </g>
    </g>
</svg>